<svg xmlns="http://www.w3.org/2000/svg" xmlns:xlink="http://www.w3.org/1999/xlink" preserveAspectRatio="xMidYMid meet" version="1.0" viewBox="1.0 1.0 510.0 510.0" zoomAndPan="magnify" style="fill: rgb(5, 29, 64);" original_string_length="2307"><g><g id="__id8_sddvo23wl9"><path d="M501,41h-20V11c0-5.522-4.478-10-10-10H41c-5.522,0-10,4.478-10,10v30H11C5.478,41,1,45.478,1,51s4.478,10,10,10 c7.259,0,52.693,0,60,0c5.522,0,10-4.478,10-10s-4.478-10-10-10H51V21h65.367c-1.214,2.102-2.252,4.33-3.079,6.676 c-1.836,5.208,0.898,10.919,6.107,12.756c5.207,1.832,10.919-0.897,12.756-6.107C134.96,26.354,142.535,21,151,21 c11.028,0,20,8.972,20,20s-8.972,20-20,20c-5.522,0-10,4.478-10,10v40.381C73.972,116.504,21,172.682,21,241v260 c0,5.522,4.478,10,10,10c5.76,0,437.369,0,450,0c5.522,0,10-4.478,10-10V241c0-71.759-56.045-124.505-120-129.667V79.734 c25.618-6.617,37.834-35.949,24.618-58.734H461v20h-20c-5.522,0-10,4.478-10,10s4.478,10,10,10c7.259,0,52.693,0,60,0 c5.522,0,10-4.478,10-10S506.522,41,501,41z M161,79.734c25.618-6.617,37.834-35.949,24.618-58.734h40.749 c-1.214,2.102-2.252,4.33-3.079,6.676c-1.836,5.208,0.898,10.919,6.107,12.756c5.208,1.832,10.919-0.897,12.756-6.107 C244.96,26.354,252.535,21,261,21c11.028,0,20,8.972,20,20s-8.972,20-20,20c-5.522,0-10,4.478-10,10v40.381 c-15.574,1.19-30.738,5.165-44.966,11.829c-14.105-6.589-29.436-10.601-45.034-11.809V79.734z M296,136.71V151 c0,11.028-8.972,20-20,20h-30c-11.028,0-20-8.972-20-20v-14.29C248.616,129.101,273.342,129.087,296,136.71z M251,491H151V241 c0-40.632,22.146-76.186,55-95.233V151c0,22.056,17.944,40,40,40h5V491z M371,491H271V191h5c22.056,0,40-17.944,40-40v-5.233 c32.854,19.047,55,54.602,55,95.233V491z M361,61c-5.522,0-10,4.478-10,10v40.285c-13.365,1.02-26.855,4.168-40.052,9.699 c-12.415-5.2-25.924-8.532-39.948-9.604V79.734c25.618-6.617,37.834-35.949,24.618-58.734h30.749 c-1.214,2.102-2.252,4.33-3.079,6.676c-1.836,5.208,0.898,10.919,6.107,12.756c5.208,1.832,10.919-0.897,12.756-6.107 C344.96,26.354,352.535,21,361,21c11.028,0,20,8.972,20,20S372.028,61,361,61z" style="fill: inherit;"/><path d="M291,241c0,5.522,4.478,10,10,10h40c5.522,0,10-4.478,10-10s-4.478-10-10-10h-40C295.478,231,291,235.478,291,241z" style="fill: inherit;"/></g></g></svg>