<svg xmlns="http://www.w3.org/2000/svg" xmlns:xlink="http://www.w3.org/1999/xlink" preserveAspectRatio="xMidYMid meet" version="1.0" viewBox="56.0 8.0 400.0 496.0" zoomAndPan="magnify" style="fill: rgb(255, 255, 255);" original_string_length="2092"><g><g id="__id0_s55qda7pa"><path d="M428,8H84C68.56,8,56,20.56,56,36v416c0,11.15,6.55,20.79,16,25.29V496c0,4.42,3.58,8,8,8h48c4.42,0,8-3.58,8-8v-16h240 v16c0,4.42,3.58,8,8,8h48c4.42,0,8-3.58,8-8v-18.71c9.45-4.5,16-14.14,16-25.29V36C456,20.56,443.44,8,428,8z M72,36 c0-6.62,5.38-12,12-12h276v64H72V36z M120,488H88v-8h32V488z M424,488h-32v-8h32V488z M440,452c0,6.62-5.38,12-12,12H84 c-6.62,0-12-5.38-12-12V104h368V452z M440,88h-64V24h52c6.62,0,12,5.38,12,12V88z" style="fill: inherit;"/><path d="M408,288c0-83.813-68.187-152-152-152s-152,68.187-152,152s68.187,152,152,152S408,371.813,408,288z M256,424 c-74.991,0-136-61.009-136-136s61.009-136,136-136s136,61.009,136,136S330.991,424,256,424z" style="fill: inherit;"/><path d="M256,168c-66.168,0-120,53.832-120,120s53.832,120,120,120s120-53.832,120-120S322.168,168,256,168z M256,184 c55.492,0,100.97,43.687,103.853,98.474c-14.451,4.859-57.948,16.496-100.701-1.827c-43.496-18.642-86.393-10.126-106.516-4.112 C158.361,224.564,202.529,184,256,184z M256,392c-55.492,0-100.97-43.687-103.853-98.474 c14.451-4.859,57.948-16.495,100.701,1.827c19.902,8.53,39.673,11.374,57.202,11.373c20.785-0.001,38.397-4,49.314-7.262 C353.64,351.435,309.471,392,256,392z" style="fill: inherit;"/><path d="M88,48h80c4.418,0,8-3.582,8-8s-3.582-8-8-8H88c-4.418,0-8,3.582-8,8S83.582,48,88,48z" style="fill: inherit;"/><path d="M88,72h40c4.418,0,8-3.582,8-8s-3.582-8-8-8H88c-4.418,0-8,3.582-8,8S83.582,72,88,72z" style="fill: inherit;"/><path d="M408,80c13.234,0,24-10.766,24-24s-10.766-24-24-24s-24,10.766-24,24S394.766,80,408,80z M408,48c4.411,0,8,3.589,8,8 s-3.589,8-8,8s-8-3.589-8-8S403.589,48,408,48z" style="fill: inherit;"/><path d="M424,440h-56c-4.418,0-8,3.582-8,8s3.582,8,8,8h56c4.418,0,8-3.582,8-8S428.418,440,424,440z" style="fill: inherit;"/><path d="M424,416h-24c-4.418,0-8,3.582-8,8s3.582,8,8,8h24c4.418,0,8-3.582,8-8S428.418,416,424,416z" style="fill: inherit;"/></g></g></svg>