<svg xmlns="http://www.w3.org/2000/svg" xmlns:xlink="http://www.w3.org/1999/xlink" data-name="Layer 1" preserveAspectRatio="xMidYMid meet" version="1.0" viewBox="25.0 66.4 463.3 378.0" zoomAndPan="magnify" style="fill: rgb(5, 29, 64);" original_string_length="2193"><g id="__id2_sddvo23wl9"><path d="M216.94,367.47h-.84a8.66,8.66,0,1,1,0-17.32h.84a8.66,8.66,0,1,1,0,17.32Z" style="fill: inherit;"/></g><g id="__id3_sddvo23wl9"><path d="M255.5,367.47h-.84a8.66,8.66,0,0,1,0-17.32h.84a8.66,8.66,0,0,1,0,17.32Z" style="fill: inherit;"/></g><g id="__id4_sddvo23wl9"><path d="M295.71,367.47h-.84a8.66,8.66,0,0,1,0-17.32h.84a8.66,8.66,0,0,1,0,17.32Z" style="fill: inherit;"/></g><g id="__id5_sddvo23wl9"><path d="M316.62,289.74h-5.1v0l5.25,0Z" style="fill: inherit;"/></g><g id="__id6_sddvo23wl9"><path d="M485.43,326.46,457.7,216.83l-10.87-43c0-.15-.08-.3-.13-.45A35.47,35.47,0,0,0,423.52,150C430,129,445.08,93,466.85,84.25a8.66,8.66,0,0,0-6.45-16.08c-32.21,12.91-49.17,62-54.43,80.16H119.85A35.69,35.69,0,0,0,84.28,187l.33,4.09a35.5,35.5,0,0,0,35.58,32.73H274.1a70,70,0,0,1,64.43,42.51c2.19,5.15,4.42,10.37,6.62,15.58-4.8-.11-10.68-.22-17.28-.34A34.93,34.93,0,0,0,294,254.88H247.34a34.54,34.54,0,0,0-24.65,10.22c-4.7,4.69-7.35,10.26-9.32,16.78-1.78.1-3.45.2-5,.32-68.27,5.17-112.47,32.08-137.52,53.74C39.46,363.09,25.26,393,25,410.72c0,.15,0,.3,0,.44v24.63a8.66,8.66,0,0,0,8.66,8.66H450.12a8.66,8.66,0,0,0,8.66-8.66V419.25a15.92,15.92,0,0,0,10.61-21.18L459,371.68a35.74,35.74,0,0,0,26.42-45.22ZM354.58,165.66h58a18.28,18.28,0,0,1,17.48,12.71l8,31.8H407.66c-29.27,0-53.08-18.32-53.08-40.84ZM232,281.22a17.63,17.63,0,0,1,15.33-9H294a17.56,17.56,0,0,1,15.34,9h0l-77.29,0ZM441.46,427.13H42.35v-7.3H441.46ZM466,347.71a18.19,18.19,0,0,1-14.78,7.47h-4.65A8.65,8.65,0,0,0,438.56,367l14,35.49H43.79C47.55,389.4,59,369.09,82.2,349s63.94-44.76,127.5-49.58c3.19-.24,7-.44,11.43-.61h.34c25.74-1,67.8-.6,98.56-.12h.12c21.7.35,37.82.75,38,.75a8.58,8.58,0,0,0,7.37-3.78,8.67,8.67,0,0,0,.82-8.25l-.35-.83c-3.8-9-7.7-18.16-11.53-27.14a87.28,87.28,0,0,0-80.35-53H120.19a18.27,18.27,0,0,1-18.32-16.83l-.33-4.09a18.36,18.36,0,0,1,18.31-19.88h217.4v3.68c0,32.07,31.58,58.16,70.4,58.16h34.86l26.17,103.42c0,.14.08.29.13.43A18.25,18.25,0,0,1,466,347.71Z" style="fill: inherit;"/></g></svg>