<svg xmlns="http://www.w3.org/2000/svg" xmlns:xlink="http://www.w3.org/1999/xlink" preserveAspectRatio="xMidYMid meet" version="1.0" viewBox="56.0 1.0 400.0 510.0" zoomAndPan="magnify" style="fill: rgb(5, 29, 64);" original_string_length="2406"><g id="__id1_sddvo23wl9"><path d="M421,1H91C71.701,1,56,16.701,56,36v440c0,19.299,15.701,35,35,35h330c19.299,0,35-15.701,35-35V36 C456,16.701,440.299,1,421,1z M376,321c0-66.168-53.832-120-120-120s-120,53.832-120,120c0,41.694,21.379,78.484,53.746,100H76V141 h360v280H322.254C354.621,399.484,376,362.694,376,321z M256,421c-55.141,0-100-44.859-100-100s44.859-100,100-100 s100,44.859,100,100S311.141,421,256,421z M91,21h330c8.271,0,15,6.729,15,15v85H76V36C76,27.729,82.729,21,91,21z M421,491H91 c-8.271,0-15-6.729-15-15v-35h360v35C436,484.271,429.271,491,421,491z" style="fill: inherit;"/><path d="M126,101c7.678,0,14.688-2.902,20-7.663c11.407,10.225,28.604,10.215,40,0c5.312,4.761,12.322,7.663,20,7.663 c16.542,0,30-13.458,30-30s-13.458-30-30-30c-7.678,0-14.688,2.902-20,7.663c-11.407-10.225-28.604-10.215-40,0 C140.688,43.902,133.678,41,126,41c-16.542,0-30,13.458-30,30S109.458,101,126,101z M206,61c5.514,0,10,4.486,10,10 s-4.486,10-10,10s-10-4.486-10-10S200.486,61,206,61z M166,61c5.514,0,10,4.486,10,10s-4.486,10-10,10s-10-4.486-10-10 S160.486,61,166,61z M126,61c5.514,0,10,4.486,10,10s-4.486,10-10,10s-10-4.486-10-10S120.486,61,126,61z" style="fill: inherit;"/><path d="M266,101h140c5.522,0,10-4.478,10-10V51c0-5.522-4.478-10-10-10H266c-5.522,0-10,4.478-10,10v40 C256,96.522,260.478,101,266,101z M276,61h120v20H276V61z" style="fill: inherit;"/><path d="M256,241c-42.941,0-80,34.643-80,80c0,44.112,35.888,80,80,80s80-35.888,80-80C336,277.166,300.342,241,256,241z M256,261 c27.761,0,51.171,18.956,57.988,44.601c-1.749-0.969-3.463-2.022-5.251-3.123c-25.651-15.781-50.633-15.284-75.478,0.005 C225.527,307.241,219.42,311,206,311c-3.288,0-6.258-0.234-9.024-0.708C202.042,282.302,226.572,261,256,261z M256,381 c-29.865,0-54.697-21.936-59.248-50.54c2.952,0.359,6.025,0.54,9.248,0.54c19.08,0,28.994-6.101,37.741-11.483 c18.849-11.6,35.673-11.595,54.515-0.004c4.849,2.984,10.178,6.251,17.316,8.535C312.071,357.821,286.698,381,256,381z" style="fill: inherit;"/><circle cx="405.998" cy="170.849" r="9.946" style="fill: inherit;"/><circle cx="366.009" cy="170.849" r="9.946" style="fill: inherit;"/><circle cx="326.02" cy="170.849" r="9.946" style="fill: inherit;"/></g></svg>